<mxfile host="app.diagrams.net" modified="2023-07-14T13:47:57.939Z" agent="Mozilla/5.0 (Windows NT 10.0; Win64; x64) AppleWebKit/537.36 (KHTML, like Gecko) Chrome/114.0.0.0 Safari/537.36" version="21.6.2" etag="2hjAG-5_Ce6f5U6y6w_a" type="github">
  <diagram name="Page-1" id="SpO0StfG-6z0ASNRvDyT">
    <mxGraphModel>
      <root>
        <mxCell id="0" />
        <mxCell id="1" parent="0" />
      </root>
    </mxGraphModel>
  </diagram>
</mxfile>
